<svg width="16" height="18" viewBox="0 0 16 18" fill="none" xmlns="http://www.w3.org/2000/svg">
<rect width="16" height="16" rx="4" fill="url(#paint0_diamond_229_179)"/>
<path d="M13.4432 6.57953H10.6023C10.5644 6.28786 10.4867 6.0246 10.3693 5.78976C10.2519 5.55491 10.0966 5.35415 9.9034 5.18748C9.71022 5.02082 9.48106 4.89392 9.2159 4.8068C8.95454 4.71589 8.66477 4.67044 8.34659 4.67044C7.78219 4.67044 7.29545 4.8087 6.88636 5.08521C6.48106 5.36173 6.16856 5.76135 5.94886 6.28407C5.73295 6.8068 5.62499 7.43938 5.62499 8.1818C5.62499 8.95453 5.73484 9.60226 5.95454 10.125C6.17803 10.6439 6.49052 11.036 6.89204 11.3011C7.29734 11.5625 7.77651 11.6932 8.32954 11.6932C8.64015 11.6932 8.92234 11.6534 9.17613 11.5738C9.43371 11.4943 9.65909 11.3788 9.85227 11.2273C10.0492 11.072 10.2102 10.8845 10.3352 10.6648C10.464 10.4413 10.553 10.1894 10.6023 9.90907L13.4432 9.92612C13.3939 10.4413 13.2443 10.9488 12.9943 11.4488C12.7481 11.9488 12.4091 12.4053 11.9773 12.8182C11.5454 13.2273 11.0189 13.553 10.3977 13.7954C9.7803 14.0379 9.07196 14.1591 8.27272 14.1591C7.21969 14.1591 6.27651 13.928 5.44318 13.4659C4.61363 13 3.95833 12.322 3.47727 11.4318C2.99621 10.5417 2.75568 9.45832 2.75568 8.1818C2.75568 6.9015 2.99999 5.81627 3.48863 4.92612C3.97727 4.03597 4.63825 3.35983 5.47159 2.89771C6.30492 2.43559 7.23863 2.20453 8.27272 2.20453C8.97727 2.20453 9.62878 2.30301 10.2273 2.49998C10.8258 2.69317 11.3523 2.97726 11.8068 3.35226C12.2614 3.72347 12.6307 4.17991 12.9148 4.72157C13.1989 5.26324 13.375 5.88256 13.4432 6.57953Z" fill="#000070"/>
<defs>
<radialGradient id="paint0_diamond_229_179" cx="0" cy="0" r="1" gradientUnits="userSpaceOnUse" gradientTransform="translate(8 7) rotate(90) scale(10.5)">
<stop stop-color="#CCCCE2"/>
<stop offset="1" stop-color="#CCCCE2"/>
</radialGradient>
</defs>
</svg>
